<svg width="0" height="0" class="hidden">
  <symbol xmlns="http://www.w3.org/2000/svg" fill="#ff5722" viewBox="0 -960 960 960" id="mail">
    <path d="M160-160q-33 0-56.5-23.5T80-240v-480q0-33 23.5-56.5T160-800h640q33 0 56.5 23.5T880-720v480q0 33-23.5 56.5T800-160H160Zm320-280L160-640v400h640v-400L480-440Zm0-80 320-200H160l320 200ZM160-640v-80 480-400Z"></path>
  </symbol>
  <symbol xmlns="http://www.w3.org/2000/svg" fill="#ff5722" viewBox="0 -960 960 960" id="smartphone">
    <path d="M280-40q-33 0-56.5-23.5T200-120v-720q0-33 23.5-56.5T280-920h400q33 0 56.5 23.5T760-840v720q0 33-23.5 56.5T680-40H280Zm0-120v40h400v-40H280Zm0-80h400v-480H280v480Zm0-560h400v-40H280v40Zm0 0v-40 40Zm0 640v40-40Z"></path>
  </symbol>
  <symbol xmlns="http://www.w3.org/2000/svg" fill="#ff5722" viewBox="0 -960 960 960" id="location">
    <path d="M480-480q33 0 56.5-23.5T560-560q0-33-23.5-56.5T480-640q-33 0-56.5 23.5T400-560q0 33 23.5 56.5T480-480Zm0 294q122-112 181-203.5T720-552q0-109-69.5-178.5T480-800q-101 0-170.5 69.5T240-552q0 71 59 162.5T480-186Zm0 106Q319-217 239.5-334.5T160-552q0-150 96.5-239T480-880q127 0 223.5 89T800-552q0 100-79.5 217.5T480-80Zm0-480Z"></path>
  </symbol>
</svg>